<?xml version="1.0" encoding="UTF-8" standalone="no"?>
<!DOCTYPE svg PUBLIC "-//W3C//DTD SVG 1.1//EN" "http://www.w3.org/Graphics/SVG/1.1/DTD/svg11.dtd">
<svg version="1.1" xmlns="http://www.w3.org/2000/svg" xmlns:xlink="http://www.w3.org/1999/xlink" preserveAspectRatio="xMidYMid meet" viewBox="0 0 640 165" width="640" height="165"><defs><path d="M640 0L640 88.19L0 88.19L0 0L640 0Z" id="ak1MELZGy"></path><linearGradient id="gradientcCPHe3cto" gradientUnits="userSpaceOnUse" x1="320" y1="0" x2="320" y2="88.19"><stop style="stop-color: #9bf9fb;stop-opacity: 1" offset="0%"></stop><stop style="stop-color: #fefef7;stop-opacity: 1" offset="100%"></stop></linearGradient><path d="M640 170.34C640 119.6 640 91.41 640 85.77C635.03 84.88 629.26 82.19 622.68 77.72C612.82 71.01 611.95 70.67 600.54 66.98C589.13 63.29 581.07 61.61 568.99 62.95C556.91 64.3 564.97 65.97 544.83 68.99C524.7 72.01 517.65 77.21 488.46 75.03C459.26 72.85 457.58 67.65 428.05 60.27C398.52 52.89 398.02 46.17 370.34 45.5C342.65 44.83 340.47 52.21 317.32 57.58C294.16 62.95 296.51 62.62 277.72 66.98C258.93 71.34 263.12 75.03 242.15 75.03C221.17 75.03 215.81 70.67 193.83 66.98C171.85 63.29 174.36 60.27 154.23 60.27C140.81 60.27 127.16 62.51 113.29 66.98C102.66 70.89 88.12 72.46 69.66 71.68C41.98 70.5 36.11 82.42 23.36 85.77C14.85 88.01 7.07 88.01 0 85.76C0 91.4 0 119.59 0 170.34L640 170.34Z" id="b6xuYAPL"></path><linearGradient id="gradienta31nI6WCr" gradientUnits="userSpaceOnUse" x1="322.01" y1="-38.43" x2="322.01" y2="120.67"><stop style="stop-color: #3f6667;stop-opacity: 1" offset="0%"></stop><stop style="stop-color: #e8e8e8;stop-opacity: 1" offset="100%"></stop></linearGradient><path d="M640 170.34C640 119.6 640 91.41 640 85.77C635.03 84.88 629.26 82.19 622.68 77.72C612.82 71.01 611.95 70.67 600.54 66.98C589.13 63.29 581.07 61.61 568.99 62.95C556.91 64.3 564.97 65.97 544.83 68.99C524.7 72.01 517.65 77.21 488.46 75.03C459.26 72.85 457.58 67.65 428.05 60.27C398.52 52.89 398.02 46.17 370.34 45.5C342.65 44.83 340.47 52.21 317.32 57.58C294.16 62.95 296.51 62.62 277.72 66.98C258.93 71.34 263.12 75.03 242.15 75.03C221.17 75.03 215.81 70.67 193.83 66.98C171.85 63.29 174.36 60.27 154.23 60.27C140.81 60.27 127.16 62.51 113.29 66.98C102.66 70.89 88.12 72.46 69.66 71.68C41.98 70.5 36.11 82.42 23.36 85.77C14.85 88.01 7.07 88.01 0 85.76C0 91.4 0 119.59 0 170.34L640 170.34Z" id="aeBkHivcV"></path><path d="M640 170.34C640 132.6 640 111.63 640 107.44C628.32 110.76 620.09 110.91 615.31 107.9C608.12 103.37 608.59 104.06 599.87 98.52C591.14 92.99 589.63 92.82 579.06 91.81C568.49 90.81 570 93.66 554.9 98.52C539.8 103.39 545 96.34 528.06 98.52C511.11 100.7 512.12 92.65 495.17 87.79C478.22 82.92 481.75 88.96 464.3 83.09C446.85 77.21 445.17 72.35 429.4 71.01C413.63 69.66 412.79 70 397.18 73.69C381.58 77.38 381.25 74.19 366.98 81.07C352.72 87.95 352.39 95.68 340.14 101.21C327.89 106.74 327.72 105.91 313.29 105.91C298.86 105.91 299.03 103.05 285.78 98.52C272.52 94 275.04 94.33 264.97 89.8C254.9 85.27 251.88 84.09 242.15 83.09C232.42 82.08 235.61 82.92 226.04 85.77C216.48 88.62 215.64 90.13 203.9 94.5C192.15 98.86 192.49 101.04 179.06 103.22C165.64 105.4 165.98 106.58 150.2 103.22C139.69 100.98 128.28 96.51 115.98 89.8C106.25 89.02 97.3 89.02 89.13 89.8C80.97 90.58 73.58 92.15 66.98 94.5C63.96 97.07 58.82 99.98 51.55 103.22C40.64 108.09 32.89 103.22 21.35 103.22C13.65 103.22 6.54 104.63 0 107.44C0 111.63 0 132.6 0 170.34L640 170.34Z" id="a1jXlpYjaB"></path><linearGradient id="gradienta18IspasHi" gradientUnits="userSpaceOnUse" x1="320" y1="41.43" x2="320" y2="148.86"><stop style="stop-color: #55877c;stop-opacity: 0.32" offset="0%"></stop><stop style="stop-color: #f7f7f7;stop-opacity: 1" offset="100%"></stop></linearGradient><path d="M640 170.34C640 132.6 640 111.63 640 107.44C628.32 110.76 620.09 110.91 615.31 107.9C608.12 103.37 608.59 104.06 599.87 98.52C591.14 92.99 589.63 92.82 579.06 91.81C568.49 90.81 570 93.66 554.9 98.52C539.8 103.39 545 96.34 528.06 98.52C511.11 100.7 512.12 92.65 495.17 87.79C478.22 82.92 481.75 88.96 464.3 83.09C446.85 77.21 445.17 72.35 429.4 71.01C413.63 69.66 412.79 70 397.18 73.69C381.58 77.38 381.25 74.19 366.98 81.07C352.72 87.95 352.39 95.68 340.14 101.21C327.89 106.74 327.72 105.91 313.29 105.91C298.86 105.91 299.03 103.05 285.78 98.52C272.52 94 275.04 94.33 264.97 89.8C254.9 85.27 251.88 84.09 242.15 83.09C232.42 82.08 235.61 82.92 226.04 85.77C216.48 88.62 215.64 90.13 203.9 94.5C192.15 98.86 192.49 101.04 179.06 103.22C165.64 105.4 165.98 106.58 150.2 103.22C139.69 100.98 128.28 96.51 115.98 89.8C106.25 89.02 97.3 89.02 89.13 89.8C80.97 90.58 73.58 92.15 66.98 94.5C63.96 97.07 58.82 99.98 51.55 103.22C40.64 108.09 32.89 103.22 21.35 103.22C13.65 103.22 6.54 104.63 0 107.44C0 111.63 0 132.6 0 170.34L640 170.34Z" id="k41wJkOdj"></path><path d="M640 169.71C640 138.08 640 120.5 640 116.99C632.57 122.6 625.46 124.56 618.66 122.89C608.46 120.38 590.98 131.42 573.69 134.93C556.41 138.44 552.22 138.94 538.8 132.92C525.37 126.91 521.51 131.75 507.92 124.9C494.33 118.04 490.64 112.78 473.69 111.52C456.75 110.26 431.25 113.68 419.33 107.49C407.42 101.3 377.58 108.07 363.49 103.22C349.4 98.36 341.98 105.55 330.24 107.9C318.49 110.24 305.75 112 297.86 119.86C289.98 127.73 276.31 122.89 267.09 124.9C257.86 126.91 250.15 129.08 238.58 132.92C227 136.77 225.09 129.92 213.85 126.91C202.61 123.9 202.39 125.38 193.83 119.86C185.27 114.34 175.71 111.52 166.31 111.52C156.92 111.52 144.84 113.62 132.76 114.87C120.67 116.11 107.23 108.33 96.32 113.35C85.41 118.36 71.08 122.36 55.14 119.86C39.2 117.35 38.93 117.35 25.37 119.86C16.33 121.53 7.88 120.57 0 116.99C0 120.5 0 138.08 0 169.71L640 169.71Z" id="b3lL3YDKy"></path><linearGradient id="gradienta9lt80Ayn" gradientUnits="userSpaceOnUse" x1="320" y1="101.57" x2="320" y2="169.71"><stop style="stop-color: #55877c;stop-opacity: 0.32" offset="0%"></stop><stop style="stop-color: #708681;stop-opacity: 1" offset="100%"></stop></linearGradient><path d="M640 165C640 135.36 640 118.9 640 115.61C632.57 120.86 625.46 122.7 618.66 121.14C608.46 118.78 590.98 129.13 573.69 132.42C556.41 135.7 552.22 136.17 538.8 130.53C525.37 124.9 521.51 129.44 507.92 123.02C494.33 116.59 490.64 111.66 473.69 110.48C456.75 109.3 419.42 128.82 407.5 123.02C395.59 117.22 400.06 118.17 385.97 113.62C371.88 109.07 359.14 108.28 347.4 110.48C335.65 112.68 327.89 110.93 320 118.3C312.12 125.67 299.98 130.53 290.76 132.42C281.53 134.3 268.49 132.57 256.92 136.17C245.34 139.78 229.23 135.24 217.99 132.42C206.75 129.6 197.06 126.31 188.5 121.14C179.94 115.96 173.34 116.99 163.94 116.99C154.55 116.99 144.84 112.45 132.76 113.62C120.67 114.78 110.78 120.2 99.87 124.9C88.96 129.6 72.86 127.24 56.92 124.9C40.98 122.55 38.93 115.95 25.37 118.3C16.33 119.86 7.88 118.96 0 115.61C0 118.9 0 135.36 0 165L640 165Z" id="bKswlnp9i"></path></defs><g><g><g><use xlink:href="#ak1MELZGy" opacity="1" fill="url(#gradientcCPHe3cto)"></use><g><use xlink:href="#ak1MELZGy" opacity="1" fill-opacity="0" stroke="#000000" stroke-width="1" stroke-opacity="0"></use></g></g><g><use xlink:href="#b6xuYAPL" opacity="1" fill="url(#gradienta31nI6WCr)"></use><g><use xlink:href="#b6xuYAPL" opacity="1" fill-opacity="0" stroke="#000000" stroke-width="1" stroke-opacity="0"></use></g></g><g><use xlink:href="#aeBkHivcV" opacity="1" fill="#000000" fill-opacity="0"></use><g><use xlink:href="#aeBkHivcV" opacity="1" fill-opacity="0" stroke="#000000" stroke-width="0" stroke-opacity="1"></use></g></g><g><use xlink:href="#a1jXlpYjaB" opacity="1" fill="url(#gradienta18IspasHi)"></use><g><use xlink:href="#a1jXlpYjaB" opacity="1" fill-opacity="0" stroke="#000000" stroke-width="1" stroke-opacity="0"></use></g></g><g><use xlink:href="#k41wJkOdj" opacity="1" fill="#000000" fill-opacity="0"></use><g><use xlink:href="#k41wJkOdj" opacity="1" fill-opacity="0" stroke="#000000" stroke-width="0" stroke-opacity="1"></use></g></g><g><use xlink:href="#b3lL3YDKy" opacity="1" fill="url(#gradienta9lt80Ayn)"></use><g><use xlink:href="#b3lL3YDKy" opacity="1" fill-opacity="0" stroke="#000000" stroke-width="1" stroke-opacity="0"></use></g></g><g><use xlink:href="#bKswlnp9i" opacity="1" fill="#708681" fill-opacity="1"></use><g><use xlink:href="#bKswlnp9i" opacity="1" fill-opacity="0" stroke="#000000" stroke-width="0" stroke-opacity="1"></use></g></g></g></g></svg>