<?xml version="1.0" encoding="UTF-8" standalone="no"?>
<!DOCTYPE svg PUBLIC "-//W3C//DTD SVG 1.1//EN" "http://www.w3.org/Graphics/SVG/1.1/DTD/svg11.dtd">
<svg version="1.1" xmlns="http://www.w3.org/2000/svg" xmlns:xlink="http://www.w3.org/1999/xlink" preserveAspectRatio="xMidYMid meet" viewBox="0 0 640 165" width="640" height="165"><defs><path d="M0 0L640 0L640 88.19L0 88.19L0 0Z" id="b1EjQRnUC"></path><linearGradient id="gradienta1ReWsclQV" gradientUnits="userSpaceOnUse" x1="320" y1="0" x2="320" y2="88.19"><stop style="stop-color: #aceefe;stop-opacity: 1" offset="0%"></stop><stop style="stop-color: #fefef7;stop-opacity: 1" offset="100%"></stop></linearGradient><path d="" id="b1SXwL1hgv"></path><path d="M0 170.34L640 170.34L640 85.77C635.03 84.88 629.26 82.19 622.68 77.72C612.82 71.01 611.95 70.67 600.54 66.98C589.13 63.29 581.07 61.61 568.99 62.95C556.91 64.3 564.97 65.97 544.83 68.99C524.7 72.01 517.65 77.21 488.46 75.03C459.26 72.85 457.58 67.65 428.05 60.27C398.52 52.89 398.02 46.17 370.34 45.5C342.65 44.83 340.47 52.21 317.32 57.58C294.16 62.95 296.51 62.62 277.72 66.98C258.93 71.34 263.12 75.03 242.15 75.03C221.17 75.03 215.81 70.67 193.83 66.98C171.85 63.29 174.36 60.27 154.23 60.27C140.81 60.27 127.16 62.51 113.29 66.98C102.66 70.89 88.12 72.46 69.66 71.68C41.98 70.5 36.11 82.42 23.36 85.77C14.85 88.01 7.07 88.01 0 85.76L0 170.34Z" id="bAnj62TBu"></path><linearGradient id="gradiente3YHfTSDbP" gradientUnits="userSpaceOnUse" x1="322.01" y1="-38.43" x2="322.01" y2="120.67"><stop style="stop-color: #0b6162;stop-opacity: 1" offset="0%"></stop><stop style="stop-color: #e8e8e8;stop-opacity: 1" offset="100%"></stop></linearGradient><path d="M0 170.34L640 170.34L640 107.44C628.32 110.76 620.09 110.91 615.31 107.9C608.12 103.37 608.59 104.06 599.87 98.52C591.14 92.99 589.63 92.82 579.06 91.81C568.49 90.81 570 93.66 554.9 98.52C539.8 103.39 545 96.34 528.06 98.52C511.11 100.7 512.12 92.65 495.17 87.79C478.22 82.92 481.75 88.96 464.3 83.09C446.85 77.21 445.17 72.35 429.4 71.01C413.63 69.66 412.79 70 397.18 73.69C381.58 77.38 381.25 74.19 366.98 81.07C352.72 87.95 352.39 95.68 340.14 101.21C327.89 106.74 327.72 105.91 313.29 105.91C298.86 105.91 299.03 103.05 285.78 98.52C272.52 94 275.04 94.33 264.97 89.8C254.9 85.27 251.88 84.09 242.15 83.09C232.42 82.08 235.61 82.92 226.04 85.77C216.48 88.62 215.64 90.13 203.9 94.5C192.15 98.86 192.49 101.04 179.06 103.22C165.64 105.4 165.98 106.58 150.2 103.22C139.69 100.98 128.28 96.51 115.98 89.8C106.25 89.02 97.3 89.02 89.13 89.8C80.97 90.58 73.58 92.15 66.98 94.5C63.96 97.07 58.82 99.98 51.55 103.22C40.64 108.09 32.89 103.22 21.35 103.22C13.65 103.22 6.54 104.63 0 107.44L0 170.34Z" id="d3XhZlykcP"></path><linearGradient id="gradientc12tWyPsBb" gradientUnits="userSpaceOnUse" x1="320" y1="41.43" x2="320" y2="148.86"><stop style="stop-color: #319092;stop-opacity: 1" offset="0%"></stop><stop style="stop-color: #f7f7f7;stop-opacity: 1" offset="100%"></stop></linearGradient><path d="M0 165L604.56 165L640 165L640 115.61C635.81 115.29 630.37 116.19 623.68 118.29C613.65 121.46 612.37 124.72 599.87 128.25C587.37 131.78 590.98 129.13 573.69 132.42C556.41 135.71 552.22 136.18 538.8 130.54C525.37 124.9 521.51 129.44 507.92 123.02C494.33 116.6 490.64 111.67 473.69 110.49C456.75 109.3 431.25 112.51 419.33 106.71C407.42 100.91 396.51 100.6 382.42 96.05C368.33 91.51 353.22 104.51 341.48 106.71C329.73 108.9 321.85 108.13 313.96 115.5C306.08 122.87 307.08 121.14 297.86 123.02C288.63 124.9 268.49 132.57 256.92 136.18C245.34 139.78 229.23 135.24 217.99 132.42C206.75 129.6 202.39 123.46 193.83 118.29C185.27 113.13 175.71 110.49 166.31 110.49C156.92 110.49 144.84 112.45 132.76 113.62C120.67 114.79 110.78 113.6 99.87 118.29C88.96 122.99 72.86 127.25 56.92 124.9C40.98 122.55 38.93 115.94 25.37 118.29C16.33 119.86 7.88 118.97 0 115.61L0 165Z" id="f9FSvv7kO"></path></defs><g><g><g><use xlink:href="#b1EjQRnUC" opacity="1" fill="url(#gradienta1ReWsclQV)"></use></g><g><g><use xlink:href="#b1SXwL1hgv" opacity="1" fill-opacity="0" stroke="#000000" stroke-width="1" stroke-opacity="1"></use></g></g><g><use xlink:href="#bAnj62TBu" opacity="1" fill="url(#gradiente3YHfTSDbP)"></use><g><use xlink:href="#bAnj62TBu" opacity="1" fill-opacity="0" stroke="#000000" stroke-width="0" stroke-opacity="1"></use></g></g><g><use xlink:href="#d3XhZlykcP" opacity="1" fill="url(#gradientc12tWyPsBb)"></use><g><use xlink:href="#d3XhZlykcP" opacity="1" fill-opacity="0" stroke="#000000" stroke-width="0" stroke-opacity="1"></use></g></g><g><use xlink:href="#f9FSvv7kO" opacity="1" fill="#729da0" fill-opacity="1"></use><g><use xlink:href="#f9FSvv7kO" opacity="1" fill-opacity="0" stroke="#000000" stroke-width="0" stroke-opacity="1"></use></g></g></g></g></svg>