<?xml version="1.0" encoding="UTF-8" standalone="no"?>
<!DOCTYPE svg PUBLIC "-//W3C//DTD SVG 1.1//EN" "http://www.w3.org/Graphics/SVG/1.1/DTD/svg11.dtd">
<svg version="1.1" xmlns="http://www.w3.org/2000/svg" xmlns:xlink="http://www.w3.org/1999/xlink" preserveAspectRatio="xMidYMid meet" viewBox="0 0 640 250" width="640" height="250"><defs><path d="" id="avidpkQbd"></path><path d="M0 74.27L640 74.27L640 209.46L0 209.46L0 74.27Z" id="dDKqPwOAi"></path><linearGradient id="gradientdeFK58kLv" gradientUnits="userSpaceOnUse" x1="322.01" y1="29.46" x2="325.37" y2="172.68"><stop style="stop-color: #95d1df;stop-opacity: 1" offset="0%"></stop><stop style="stop-color: #f2eeee;stop-opacity: 1" offset="100%"></stop></linearGradient><path d="M0 254.9L640 254.9L640 170.33C635.03 169.44 629.26 166.76 622.68 162.28C612.82 155.57 611.94 155.23 600.53 151.54C589.12 147.85 581.07 146.17 568.99 147.52C556.91 148.86 564.96 150.54 544.83 153.56C524.69 156.58 517.65 161.78 488.45 159.6C459.26 157.42 457.58 152.21 428.05 144.83C398.52 137.45 398.02 130.74 370.33 130.07C342.65 129.4 340.47 136.78 317.31 142.15C294.16 147.52 296.51 147.18 277.71 151.54C258.92 155.91 263.12 159.6 242.14 159.6C221.17 159.6 215.8 155.23 193.82 151.54C171.84 147.85 174.36 144.83 154.22 144.83C140.8 144.83 127.16 147.07 113.29 151.54C102.66 155.46 88.12 157.02 69.66 156.24C41.98 155.07 36.1 166.98 23.35 170.34C14.85 172.57 7.07 172.57 0 170.33L0 254.9Z" id="g7Rkfc7KIz"></path><linearGradient id="gradientbLFSM14iH" gradientUnits="userSpaceOnUse" x1="322.01" y1="46.13" x2="322.01" y2="205.23"><stop style="stop-color: #3f6667;stop-opacity: 1" offset="0%"></stop><stop style="stop-color: #e8e8e8;stop-opacity: 1" offset="100%"></stop></linearGradient><path d="M0 254.9L640 254.9L640 192C628.32 195.33 620.09 195.48 615.3 192.46C608.12 187.94 608.59 188.62 599.87 183.09C591.14 177.55 589.63 177.38 579.06 176.38C568.49 175.37 570 178.22 554.9 183.09C539.8 187.95 545 180.91 528.05 183.09C511.11 185.27 512.11 177.21 495.17 172.35C478.22 167.48 481.74 173.52 464.3 167.65C446.85 161.78 445.17 156.91 429.4 155.57C413.62 154.23 412.79 154.56 397.18 158.26C381.58 161.95 381.24 158.76 366.98 165.64C352.72 172.52 352.38 180.24 340.13 185.77C327.89 191.3 327.72 190.47 313.29 190.47C298.86 190.47 299.03 187.61 285.77 183.09C272.52 178.56 275.03 178.89 264.97 174.36C254.9 169.83 251.88 168.66 242.15 167.65C232.42 166.64 235.6 167.48 226.04 170.34C216.48 173.19 215.64 174.7 203.89 179.06C192.15 183.42 192.48 185.6 179.06 187.79C165.64 189.97 165.97 191.14 150.2 187.79C139.69 185.55 128.28 181.07 115.97 174.36C106.24 173.58 97.29 173.58 89.13 174.36C80.96 175.15 73.58 176.71 66.98 179.06C63.96 181.63 58.81 184.54 51.54 187.79C40.64 192.65 32.89 187.79 21.34 187.79C13.65 187.79 6.53 189.19 0 192L0 254.9Z" id="c6F9w3eE3"></path><linearGradient id="gradientb6TT6fD3qm" gradientUnits="userSpaceOnUse" x1="320" y1="125.99" x2="320" y2="233.42"><stop style="stop-color: #55877c;stop-opacity: 0.32" offset="0%"></stop><stop style="stop-color: #f7f7f7;stop-opacity: 1" offset="100%"></stop></linearGradient><path d="M0 254.27L640 254.27L640 201.56C632.57 207.16 625.46 209.13 618.66 207.46C608.46 204.95 590.97 215.98 573.69 219.49C556.41 223.01 552.21 223.51 538.79 217.49C525.37 211.47 521.51 216.32 507.92 209.46C494.33 202.61 490.64 197.35 473.69 196.09C456.74 194.83 431.24 198.24 419.33 192.05C407.42 185.86 396.51 185.54 382.42 180.68C368.32 175.83 353.22 189.71 341.48 192.05C329.73 194.4 321.85 193.57 313.96 201.44C306.07 209.3 307.08 207.46 297.85 209.46C288.62 211.47 268.49 219.66 256.91 223.51C245.34 227.35 229.23 222.5 217.99 219.49C206.74 216.48 202.38 209.94 193.83 204.42C185.27 198.9 175.7 196.09 166.31 196.09C156.91 196.09 144.83 198.18 132.75 199.43C120.67 200.68 110.77 199.41 99.87 204.42C88.96 209.44 72.85 213.98 56.91 211.47C40.97 208.96 38.93 201.91 25.37 204.42C16.33 206.09 7.87 205.14 0 201.56L0 254.27Z" id="c3jsu30RW7"></path><linearGradient id="gradienti3o9q6p3g4" gradientUnits="userSpaceOnUse" x1="320" y1="179.66" x2="320" y2="254.27"><stop style="stop-color: #55877c;stop-opacity: 0.32" offset="0%"></stop><stop style="stop-color: #708681;stop-opacity: 1" offset="100%"></stop></linearGradient></defs><g><g><g><g><use xlink:href="#avidpkQbd" opacity="1" fill-opacity="0" stroke="#000000" stroke-width="1" stroke-opacity="1"></use></g></g><g><use xlink:href="#dDKqPwOAi" opacity="1" fill="url(#gradientdeFK58kLv)"></use></g><g><use xlink:href="#g7Rkfc7KIz" opacity="1" fill="url(#gradientbLFSM14iH)"></use><g><use xlink:href="#g7Rkfc7KIz" opacity="1" fill-opacity="0" stroke="#000000" stroke-width="0" stroke-opacity="1"></use></g></g><g><use xlink:href="#c6F9w3eE3" opacity="1" fill="url(#gradientb6TT6fD3qm)"></use><g><use xlink:href="#c6F9w3eE3" opacity="1" fill-opacity="0" stroke="#000000" stroke-width="0" stroke-opacity="1"></use></g></g><g><use xlink:href="#c3jsu30RW7" opacity="1" fill="url(#gradienti3o9q6p3g4)"></use><g><use xlink:href="#c3jsu30RW7" opacity="1" fill-opacity="0" stroke="#000000" stroke-width="0" stroke-opacity="1"></use></g></g></g></g></svg>